<svg id="그룹_1260" data-name="그룹 1260" xmlns="http://www.w3.org/2000/svg" width="386.767" height="441.969" viewBox="0 0 386.767 441.969">
  <g id="그룹_1254" data-name="그룹 1254" transform="translate(0)">
    <g id="그룹_1253" data-name="그룹 1253">
      <g id="그룹_1203" data-name="그룹 1203" transform="translate(119.868 273.724)">
        <g id="그룹_1199" data-name="그룹 1199" transform="translate(2.45 2.488)">
          <path id="패스_2262" data-name="패스 2262" d="M1559.38,348.758a10.019,10.019,0,0,0-9.438-1.485c-6.4,2.153-18.186,10.176-28.137,39.459-14.49,42.639-.077,62.283,16.142,63.783s25.645-5.969,28.489-52.386C1568.568,363.318,1564.18,352.624,1559.38,348.758Z" transform="translate(-1515.83 -346.712)" fill="#ff885f"/>
        </g>
        <g id="그룹_1201" data-name="그룹 1201" transform="translate(2.461 69.558)">
          <g id="그룹_1200" data-name="그룹 1200">
            <path id="패스_2263" data-name="패스 2263" d="M1516.966,373.624c-1.553,24.047,9.679,35.6,21.961,36.733,13.58,1.256,22.393-3.791,26.572-32.7C1545.153,376.665,1525.83,374.636,1516.966,373.624Z" transform="translate(-1516.821 -373.624)" fill="#ffd3b9"/>
          </g>
        </g>
        <g id="그룹_1202" data-name="그룹 1202">
          <path id="패스_2264" data-name="패스 2264" d="M1542.894,454.669c5.724,0,10.008-1.446,13.595-4.516,7.988-6.848,12.139-21.914,13.882-50.38,2.333-38.048-3.041-47.491-7.98-51.466a12.546,12.546,0,0,0-11.8-1.9c-8.115,2.727-19.856,12.055-29.7,41.019-8.028,23.626-8.087,43.357-.17,55.566a24.46,24.46,0,0,0,18.443,11.5Q1541.128,454.666,1542.894,454.669Zm11.912-103.975a7.1,7.1,0,0,1,4.458,1.5h0c5.71,4.6,7.771,20.5,6.131,47.277-1.61,26.27-5.473,41.176-12.152,46.9-3.258,2.791-7.347,3.741-13.62,3.153a19.568,19.568,0,0,1-14.719-9.249c-7.071-10.9-6.818-29.1.71-51.25,9.67-28.456,20.8-35.96,26.569-37.9A8.144,8.144,0,0,1,1554.807,350.694Zm6.021-.446h0Z" transform="translate(-1514.828 -345.714)" fill="#e36547"/>
        </g>
      </g>
      <g id="그룹_1205" data-name="그룹 1205" transform="translate(201.216 276.696)">
        <g id="그룹_1204" data-name="그룹 1204">
          <path id="패스_2265" data-name="패스 2265" d="M1571.451,356.374c2.988,9.4-5.159,11.045-12.167,25.909-8.76,18.582-8.269,39.554-24.785,54.784-24.915,22.973-57.034,16.66-70.866-1.645-12.15-16.077-5.127-50.564,21.824-71.11S1567.58,344.192,1571.451,356.374Z" transform="translate(-1455.408 -345.413)" fill="#ff885f"/>
          <path id="패스_2266" data-name="패스 2266" d="M1500.081,455.853c13.473,0,26.667-5.4,37.578-15.462,11.292-10.41,15.01-23.434,18.607-36.027,1.862-6.515,3.786-13.251,6.744-19.524a61.5,61.5,0,0,1,7.878-12.359c3.691-4.738,6.6-8.476,4.414-15.367h0c-1.047-3.295-4.414-5.857-10.009-7.624-17.6-5.563-57.475-2.744-79.873,14.333a73.365,73.365,0,0,0-26.47,38.557c-3.835,14.039-2.277,27.511,4.167,36.037,7.377,9.764,19.21,16.045,32.464,17.234C1497.08,455.785,1498.585,455.853,1500.081,455.853Zm70.47-97.231h0c1.393,4.391-.169,6.4-3.594,10.794a65.73,65.73,0,0,0-8.453,13.3c-3.133,6.644-5.114,13.578-7.031,20.282-3.564,12.483-6.931,24.271-17.191,33.732-11.083,10.223-24.678,15.192-38.26,13.961-11.676-1.047-22.492-6.756-28.927-15.272-11.387-15.068-4.543-47.89,21.346-67.628,20.817-15.868,59.14-18.664,75.352-13.543C1567.582,355.439,1570.047,357.037,1570.55,358.622Z" transform="translate(-1456.88 -346.906)" fill="#e36547"/>
        </g>
      </g>
      <g id="그룹_1213" data-name="그룹 1213" transform="translate(143.493 350.057)">
        <g id="그룹_1212" data-name="그룹 1212" transform="translate(0)">
          <g id="그룹_1207" data-name="그룹 1207" transform="translate(2.494 2.496)">
            <g id="그룹_1206" data-name="그룹 1206">
              <path id="패스_2267" data-name="패스 2267" d="M1506.724,379.512s2.248,47.843,3.275,55.123-2.475,26.333,14.011,28.045,31.4,1.722,32.493-18.6-.391-66.734-.391-66.734Z" transform="translate(-1506.724 -377.344)" fill="#ff885f"/>
            </g>
          </g>
          <g id="그룹_1209" data-name="그룹 1209" transform="translate(5.899 61.1)">
            <g id="그룹_1208" data-name="그룹 1208">
              <path id="패스_2268" data-name="패스 2268" d="M1506.772,400.859c21.894,3.464,36.969,2.238,46.659.065-.065,2.963-.155,5.695-.284,8.065-1.094,20.324-16,20.311-32.493,18.6C1505.072,425.973,1507.343,408.876,1506.772,400.859Z" transform="translate(-1506.772 -400.859)" fill="#ffd3b9"/>
            </g>
          </g>
          <g id="그룹_1211" data-name="그룹 1211">
            <g id="그룹_1210" data-name="그룹 1210">
              <path id="패스_2269" data-name="패스 2269" d="M1536.245,467.352c6.676,0,12.862-1.1,17.378-4.959,4.209-3.6,6.457-9.054,6.868-16.685,1.084-20.2-.379-66.485-.393-66.951a2.482,2.482,0,0,0-.8-1.747,2.41,2.41,0,0,0-1.8-.66l-49.391,2.168a2.5,2.5,0,0,0-2.38,2.607c.092,1.959,2.268,48.042,3.3,55.352a45.166,45.166,0,0,1,.239,4.9c.159,8.85.421,23.661,15.982,25.278A108.93,108.93,0,0,0,1536.245,467.352Zm18.948-85.911c.287,9.941,1.249,46.719.319,64-.333,6.2-2.011,10.5-5.126,13.161-5.44,4.648-15.153,4.08-24.62,3.1-10.33-1.072-11.327-9.877-11.514-20.406a48.455,48.455,0,0,0-.287-5.508c-.867-6.136-2.659-42.475-3.137-52.393Z" transform="translate(-1505.726 -376.342)" fill="#e36547"/>
            </g>
          </g>
        </g>
      </g>
      <g id="그룹_1221" data-name="그룹 1221" transform="translate(178.478 350.96)">
        <g id="그룹_1220" data-name="그룹 1220" transform="translate(0)">
          <g id="그룹_1215" data-name="그룹 1215" transform="translate(2.492 2.495)">
            <g id="그룹_1214" data-name="그룹 1214">
              <path id="패스_2270" data-name="패스 2270" d="M1492.687,379.874s2.25,47.843,3.277,55.122-2.477,26.333,14.011,28.045,31.4,1.722,32.493-18.6-.394-66.734-.394-66.734Z" transform="translate(-1492.687 -377.706)" fill="#ff885f"/>
            </g>
          </g>
          <g id="그룹_1217" data-name="그룹 1217" transform="translate(5.896 61.099)">
            <g id="그룹_1216" data-name="그룹 1216">
              <path id="패스_2271" data-name="패스 2271" d="M1492.734,401.221c21.894,3.464,36.969,2.238,46.662.065-.065,2.963-.157,5.695-.284,8.065-1.094,20.324-16,20.311-32.493,18.6C1491.035,426.335,1493.305,409.238,1492.734,401.221Z" transform="translate(-1492.734 -401.221)" fill="#ffd3b9"/>
            </g>
          </g>
          <g id="그룹_1219" data-name="그룹 1219">
            <g id="그룹_1218" data-name="그룹 1218">
              <path id="패스_2272" data-name="패스 2272" d="M1522.213,467.713c6.674,0,12.857-1.1,17.371-4.959,4.212-3.6,6.457-9.054,6.868-16.688,1.087-20.2-.374-66.482-.391-66.945a2.484,2.484,0,0,0-.8-1.75,2.419,2.419,0,0,0-1.8-.66l-49.391,2.168a2.5,2.5,0,0,0-2.38,2.607c.092,1.959,2.268,48.042,3.3,55.354a45.235,45.235,0,0,1,.237,4.9c.159,8.847.424,23.661,15.983,25.273A107.685,107.685,0,0,0,1522.213,467.713Zm18.943-85.911c.287,9.946,1.249,46.719.316,64-.331,6.2-2.009,10.5-5.127,13.164-5.438,4.648-15.152,4.077-24.62,3.09-10.33-1.069-11.327-9.874-11.514-20.406a47.764,47.764,0,0,0-.286-5.5c-.865-6.136-2.655-42.475-3.135-52.4Z" transform="translate(-1491.688 -376.705)" fill="#e36547"/>
            </g>
          </g>
        </g>
      </g>
      <g id="그룹_1222" data-name="그룹 1222" transform="translate(128.788 255.8)">
        <path id="패스_2273" data-name="패스 2273" d="M1601.278,407.663c1.824,51.414-24.456,57.231-64.947,56.334-30.774-.68-54.639-6.191-48.608-48.872,5.737-40.608,23.706-74.841,55.128-75.588S1599.82,366.678,1601.278,407.663Z" transform="translate(-1484.294 -337.03)" fill="#ff885f"/>
        <path id="패스_2274" data-name="패스 2274" d="M1544.461,468.06c21.323,0,37.752-2.687,48.326-13.406,9.154-9.278,13.234-24.189,12.471-45.59-1.478-41.672-27.217-71.269-60.974-70.529-29.246.7-50.756,29.754-57.535,77.732-2.457,17.378-.219,29.869,6.839,38.178,9.555,11.25,26.881,13.151,44.182,13.538C1540.05,468.03,1542.283,468.06,1544.461,468.06Zm1.151-124.555c30.4,0,53.306,27.422,54.666,65.734h0c.708,19.957-2.9,33.667-11.038,41.916-10.4,10.54-28.04,12.366-51.359,11.843-16.137-.359-32.217-2.034-40.5-11.781-6.081-7.16-7.948-18.365-5.7-34.255,6.41-45.353,26.118-72.81,52.718-73.443C1544.806,343.51,1545.212,343.5,1545.613,343.5Zm57.156,65.647h0Z" transform="translate(-1485.787 -338.522)" fill="#e36547"/>
      </g>
      <g id="그룹_1227" data-name="그룹 1227" transform="translate(198.547 272.585)">
        <g id="그룹_1223" data-name="그룹 1223" transform="translate(2.509 2.484)">
          <path id="패스_2275" data-name="패스 2275" d="M1501.557,347.424a10.024,10.024,0,0,1,9.552.085c5.964,3.175,16.27,13.024,21.276,43.544,7.295,44.441-10.146,61.45-26.4,60.266s-24.314-10.1-19.5-56.351C1490.1,360.276,1496.186,350.447,1501.557,347.424Z" transform="translate(-1485.109 -346.253)" fill="#ff885f"/>
        </g>
        <g id="그룹_1225" data-name="그룹 1225" transform="translate(2.513 70.934)">
          <g id="그룹_1224" data-name="그룹 1224">
            <path id="패스_2276" data-name="패스 2276" d="M1533.845,377.707c-2.415,23.975-15.392,33.525-27.7,32.628-13.6-.989-21.465-7.417-20.842-36.615C1505.541,376.077,1524.933,377.25,1533.845,377.707Z" transform="translate(-1485.272 -373.719)" fill="#ffd3b9"/>
          </g>
        </g>
        <g id="그룹_1226" data-name="그룹 1226">
          <path id="패스_2277" data-name="패스 2277" d="M1509.111,455.356a24.572,24.572,0,0,0,18.3-8.379c9.819-10.739,13-30.215,8.957-54.841-4.952-30.178-15-41.313-22.564-45.341a12.559,12.559,0,0,0-11.945-.055h0c-5.527,3.11-12.378,11.541-16.324,49.455-2.953,28.369-1.331,43.913,5.425,51.982,3.654,4.361,8.7,6.555,16.376,7.113C1507.927,455.336,1508.523,455.356,1509.111,455.356Zm-1.443-105.121a8.144,8.144,0,0,1,3.793.96c5.376,2.864,15.12,12.1,19.988,41.749,3.788,23.085,1.047,41.081-7.718,50.669a19.559,19.559,0,0,1-16.035,6.709c-6.3-.461-10.163-2.056-12.917-5.346-5.65-6.749-7.013-22.083-4.289-48.264,2.779-26.682,7.425-42.034,13.812-45.627h0A6.85,6.85,0,0,1,1507.668,350.235Z" transform="translate(-1484.121 -345.257)" fill="#e36547"/>
        </g>
      </g>
      <g id="그룹_1228" data-name="그룹 1228" transform="translate(141.052 289.345)">
        <path id="패스_2278" data-name="패스 2278" d="M1560.907,400.942c-2.824,25.191-12.818,27.741-31.723,27.192-14.054-.409-24.486-9.363-21.66-34.554s15.469-43.225,29.465-41.483C1552.411,354.017,1563.731,375.751,1560.907,400.942Z" transform="translate(-1507.06 -351.981)" fill="#ffd3b9"/>
      </g>
      <g id="그룹_1229" data-name="그룹 1229" transform="translate(188.357 259.806)">
        <path id="패스_2279" data-name="패스 2279" d="M1509.859,340.129" transform="translate(-1509.859 -340.129)" fill="none" stroke="#000" stroke-linecap="round" stroke-linejoin="round" stroke-width="2"/>
      </g>
      <g id="그룹_1235" data-name="그룹 1235">
        <g id="그룹_1234" data-name="그룹 1234">
          <g id="그룹_1230" data-name="그룹 1230">
            <path id="패스_2280" data-name="패스 2280" d="M1574.337,391.868c15.808,15.015,47.519-19.32,67.165-42.769,17.667-21.087,44.371-60.219,23.073-75.723-38.46-28-109.41-49.313-130.786-27.429C1509.854,270.453,1541.851,361.007,1574.337,391.868Z" transform="translate(-1522.961 -234.337)" fill="#ff885f"/>
            <path id="패스_2281" data-name="패스 2281" d="M1585.109,399.578c.359,0,.723-.01,1.087-.03,17.954-1.022,42.1-27.487,58.706-47.3,12.78-15.257,33.847-43.908,31.332-64.4a20.935,20.935,0,0,0-8.7-14.941c-37.792-27.506-110.719-51.025-134.036-27.153-6.26,6.407-9.3,16.922-9.029,31.245.7,37.191,24.822,94.644,49.645,118.22A15.451,15.451,0,0,0,1585.109,399.578ZM1563.97,241.127c29.376,0,72.5,15.329,100.628,35.808a15.909,15.909,0,0,1,6.689,11.516c2.37,19.319-20.333,48.81-30.205,60.593-9.224,11.008-37.291,44.511-55.167,45.528a10.715,10.715,0,0,1-8.369-2.966h0c-24.044-22.841-47.417-78.584-48.092-114.7-.239-12.76,2.393-22.328,7.614-27.671C1542.56,243.609,1552.155,241.127,1563.97,241.127Z" transform="translate(-1524.453 -235.881)" fill="#e36547"/>
          </g>
          <g id="그룹_1231" data-name="그룹 1231" transform="translate(42.247 38.746)">
            <path id="패스_2282" data-name="패스 2282" d="M1565.866,330.4c7.89,7.492,23.711-7.07,33.515-18.771,8.815-10.52,22.141-30.046,11.512-37.784-19.19-13.969-59.606-29.62-70.4-18.826S1549.657,315,1565.866,330.4Z" transform="translate(-1537.431 -251.428)" fill="#ffd3b9"/>
          </g>
          <g id="그룹_1233" data-name="그룹 1233" transform="translate(2.495 2.586)">
            <g id="그룹_1232" data-name="그룹 1232">
              <path id="패스_2283" data-name="패스 2283" d="M1562.28,245.943c11.9-12.184,39.177-10.966,67.651-2.669-15.34.162-39.232,3.1-52.832,18.343-11.524,12.91-15.988,31.955-17.433,48.934C1552.127,283.155,1551.12,257.37,1562.28,245.943Z" transform="translate(-1553.948 -236.919)" fill="#e36547"/>
            </g>
          </g>
        </g>
      </g>
      <g id="그룹_1237" data-name="그룹 1237" transform="translate(41.642 23.91)">
        <g id="그룹_1236" data-name="그룹 1236">
          <path id="패스_2284" data-name="패스 2284" d="M1743.351,407.045c-4.852,77.749-77.809,91.616-168.859,90.317-61.714-.882-120.219-11.878-124.4-84.309-4.555-78.878,65.812-166.579,144.125-166.579S1748.273,328.189,1743.351,407.045Z" transform="translate(-1447.389 -243.983)" fill="#ff885f"/>
          <path id="패스_2285" data-name="패스 2285" d="M1586.4,501.422c48.137,0,82.417-5.067,107.319-15.793,33.747-14.54,51.279-39.711,53.607-76.934h0c2.415-38.654-13.9-79.661-44.765-112.51-30.275-32.227-69.223-50.709-106.858-50.709-34.759,0-69.657,16.693-98.27,47-32.691,34.634-50.764,80.319-48.341,122.21,4.318,74.831,66.549,85.8,126.85,86.656Q1581.281,501.423,1586.4,501.422Zm9.3-250.962c36.264,0,73.889,17.909,103.227,49.136,29.924,31.85,45.749,71.5,43.422,108.787h0c-4.952,79.337-82.873,89.2-166.335,87.977-60.934-.865-117.876-11.4-121.951-81.959-2.34-40.548,15.225-84.847,47-118.5C1528.723,266.6,1562.332,250.459,1595.708,250.459Z" transform="translate(-1448.881 -245.475)" fill="#e36547"/>
        </g>
      </g>
      <g id="그룹_1238" data-name="그룹 1238" transform="translate(126.037 57.66)">
        <path id="패스_2286" data-name="패스 2286" d="M1582.08,260.916s2.943,2.866-.015,12.723c-4.349,14.5-18.056,19.756-24.825,22.111-7.08,2.462-9.75-1.059-9-2.841,1.61-3.82,4.635-14.639,2.562-22.305,0,0-4.451,26.273-43.666,25.979a6.48,6.48,0,0,1-6.2-4.611c-1.747-5.974,5.919-18.071,10.684-31.953" transform="translate(-1498.193 -257.523)" fill="#ff885f"/>
        <path id="패스_2287" data-name="패스 2287" d="M1554.311,300.586a15.967,15.967,0,0,0,5.236-.989c5.884-2.046,21.518-7.482,26.4-23.746,3.227-10.759.037-14.569-.633-15.225a2.493,2.493,0,0,0-3.589,3.457c.147.222,1.7,2.819-.553,10.335-4.147,13.824-18.034,18.652-23.257,20.471-3.708,1.288-5.333.511-5.734.12,1.523-3.828,4.808-15.1,2.522-23.559a2.537,2.537,0,0,0-2.525-1.842,2.5,2.5,0,0,0-2.34,2.074c-.172.972-4.68,23.905-40.55,23.905l-.638,0a4.008,4.008,0,0,1-3.828-2.814c-.877-3,1.972-9.513,4.982-16.406,1.852-4.239,3.95-9.042,5.667-14.041a2.493,2.493,0,0,0-4.715-1.62c-1.65,4.807-3.706,9.515-5.518,13.665-3.679,8.419-6.584,15.065-5.2,19.8a9.02,9.02,0,0,0,8.573,6.4l.661,0c20.75,0,31.963-7.422,37.734-13.685a34.276,34.276,0,0,0,3.155-3.98,45.412,45.412,0,0,1-2.724,10.527,4.617,4.617,0,0,0,1.084,4.957A7.667,7.667,0,0,0,1554.311,300.586Z" transform="translate(-1499.682 -259.018)" fill="#e36547"/>
      </g>
      <g id="그룹_1248" data-name="그룹 1248" transform="translate(96.843 142.972)">
        <g id="그룹_1242" data-name="그룹 1242" transform="translate(29.586 50.009)">
          <g id="그룹_1239" data-name="그룹 1239" transform="translate(0 3.873)">
            <path id="패스_2288" data-name="패스 2288" d="M1585.383,345.737c0,17.047-15.195,32.718-45.675,32.085-23.364-.488-38.96-15.038-38.96-32.085s18.946-30.868,42.318-30.868S1585.383,328.688,1585.383,345.737Z" transform="translate(-1500.748 -314.869)" fill="#fff"/>
          </g>
          <g id="그룹_1240" data-name="그룹 1240" transform="translate(22.171)">
            <path id="패스_2289" data-name="패스 2289" d="M1540.11,318.975c0,5.186-4.511,13.124-13.037,13.124-6.636,0-10.843-6.7-10.843-11.885s4.207-6.9,10.843-6.9S1540.11,313.786,1540.11,318.975Z" transform="translate(-1516.23 -313.315)" fill="#582d17"/>
          </g>
          <g id="그룹_1241" data-name="그룹 1241" transform="translate(21.29 30.02)">
            <path id="패스_2290" data-name="패스 2290" d="M1515.693,339.2a3.664,3.664,0,0,0,1.249-.219c.366-.132,3.434-1.3,8.476-5.488,3.688,1.62,11.212,4.655,17.692,5.52a3.74,3.74,0,0,0,.987-7.414c-7.581-1.009-17.575-5.819-17.675-5.867a3.735,3.735,0,0,0-4.122.578c-5,4.473-7.9,5.64-7.93,5.652a3.744,3.744,0,0,0,1.323,7.237Z" transform="translate(-1511.973 -325.361)" fill="#582d17"/>
          </g>
        </g>
        <g id="그룹_1243" data-name="그룹 1243" transform="translate(115.662 0.034)">
          <ellipse id="타원_55" data-name="타원 55" cx="6.423" cy="11.395" rx="6.423" ry="11.395" transform="translate(5.435 21.282) rotate(-115.031)" fill="#fff"/>
        </g>
        <g id="그룹_1244" data-name="그룹 1244" transform="translate(0.566 0)">
          <ellipse id="타원_56" data-name="타원 56" cx="10.824" cy="6.341" rx="10.824" ry="6.341" transform="translate(19.123 21.349) rotate(-152.051)" fill="#fff"/>
        </g>
        <g id="그룹_1247" data-name="그룹 1247" transform="translate(0 35.358)">
          <g id="그룹_1245" data-name="그룹 1245" transform="translate(123.398 0)">
            <ellipse id="타원_57" data-name="타원 57" cx="10.269" cy="18.177" rx="10.269" ry="18.177" transform="matrix(-0.999, -0.035, 0.035, -0.999, 20.525, 37.049)" fill="#582d17"/>
          </g>
          <g id="그룹_1246" data-name="그룹 1246" transform="translate(0 0.059)">
            <ellipse id="타원_58" data-name="타원 58" cx="18.176" cy="9.631" rx="18.176" ry="9.631" transform="matrix(-0.031, -1, 1, -0.031, 1.126, 36.931)" fill="#582d17"/>
          </g>
        </g>
      </g>
      <g id="그룹_1252" data-name="그룹 1252" transform="translate(48.064 118.107)">
        <g id="그룹_1249" data-name="그룹 1249" transform="translate(128.638)">
          <path id="패스_2291" data-name="패스 2291" d="M1526.732,406.773a61.751,61.751,0,1,0-61.752-61.749A61.82,61.82,0,0,0,1526.732,406.773Zm0-116.024a54.274,54.274,0,1,1-54.275,54.275A54.335,54.335,0,0,1,1526.732,290.749Z" transform="translate(-1464.98 -283.272)" fill="#482620"/>
        </g>
        <g id="그룹_1250" data-name="그룹 1250" transform="translate(0)">
          <path id="패스_2292" data-name="패스 2292" d="M1574.04,406.773c28.65,0,51.962-27.7,51.962-61.749s-23.312-61.752-51.962-61.752c-27.811,0-48,25.969-48,61.752S1546.229,406.773,1574.04,406.773Zm0-116.024c24.53,0,44.485,24.346,44.485,54.275S1598.571,399.3,1574.04,399.3c-23.479,0-40.521-22.826-40.521-54.273S1550.561,290.749,1574.04,290.749Z" transform="translate(-1526.043 -283.272)" fill="#482620"/>
        </g>
        <g id="그룹_1251" data-name="그룹 1251" transform="translate(92.482 61.36)">
          <path id="패스_2293" data-name="패스 2293" d="M1515.211,319.136a3.691,3.691,0,0,0,1.565-.346c.264-.117,16.934-7.551,33.179,0a3.737,3.737,0,0,0,3.15-6.779c-19.506-9.069-38.667-.374-39.471,0a3.737,3.737,0,0,0,1.577,7.128Z" transform="translate(-1511.469 -307.893)" fill="#482620"/>
        </g>
      </g>
    </g>
  </g>
  <g id="그룹_1259" data-name="그룹 1259" transform="translate(237.609 0.09)">
    <g id="그룹_1255" data-name="그룹 1255">
      <path id="패스_2294" data-name="패스 2294" d="M1431.247,278.767a18.751,18.751,0,0,1,5.049-5.391c38.462-28,109.41-49.313,130.786-27.429,23.935,24.506-8.062,115.06-40.548,145.921-1.677,1.593-5.47,5.391-7.471,5.944" transform="translate(-1428.754 -234.427)" fill="#ff885f"/>
      <path id="패스_2295" data-name="패스 2295" d="M1520.555,401.792a2.439,2.439,0,0,0,.663-.09c2.225-.613,5.039-3.19,7.97-6.006l.558-.533c24.82-23.576,48.944-81.029,49.642-118.22.267-14.323-2.771-24.837-9.029-31.245-14.1-14.427-44.5-9.75-61.355-5.675-25.468,6.153-53.318,18.731-72.682,32.827a21.4,21.4,0,0,0-5.707,6.1,2.492,2.492,0,1,0,4.249,2.6,16.5,16.5,0,0,1,4.394-4.678c39.449-28.723,108.386-47.307,127.533-27.7,5.221,5.343,7.851,14.911,7.614,27.671-.678,36.117-24.05,91.86-48.092,114.7l-.578.551c-3.075,2.956-5.042,4.571-5.839,4.8a2.491,2.491,0,0,0,.661,4.892Z" transform="translate(-1430.247 -235.917)" fill="#e36547"/>
    </g>
    <g id="그룹_1256" data-name="그룹 1256" transform="translate(26.475 37.834)">
      <path id="패스_2296" data-name="패스 2296" d="M1497.376,330.073c-7.888,7.494-23.708-7.068-33.513-18.769-8.815-10.522-22.141-30.049-11.511-37.784,19.19-13.971,59.606-29.62,70.4-18.829S1513.588,314.676,1497.376,330.073Z" transform="translate(-1448.419 -251.099)" fill="#ffd3b9"/>
    </g>
    <g id="그룹_1258" data-name="그룹 1258" transform="translate(70.677 2.496)">
      <g id="그룹_1257" data-name="그룹 1257">
        <path id="패스_2297" data-name="패스 2297" d="M1498.9,245.943c-11.9-12.184-39.175-10.966-67.651-2.669,15.34.162,39.233,3.1,52.832,18.343,11.524,12.91,15.987,31.955,17.435,48.934C1509.053,283.155,1510.06,257.37,1498.9,245.943Z" transform="translate(-1431.249 -236.919)" fill="#e36547"/>
      </g>
    </g>
  </g>
</svg>
