<?xml version="1.0" encoding="utf-8"?>
<!-- Generator: Adobe Illustrator 24.0.3, SVG Export Plug-In . SVG Version: 6.00 Build 0)  -->
<svg version="1.0" xmlns="http://www.w3.org/2000/svg" xmlns:xlink="http://www.w3.org/1999/xlink" x="0px" y="0px" width="78.2px"
	 height="78.2px" viewBox="0 0 78.2 78.2" style="enable-background:new 0 0 78.2 78.2;" xml:space="preserve">
<style type="text/css">
	.st0{fill:#007A84;}
	.st1{fill:#FFFFFF;}
</style>
<g id="레이어_4">
</g>
<g id="비트맵">
</g>
<g id="레이어_6">
	<g>
		<circle class="st0" cx="39.1" cy="39.1" r="39.1"/>
		<path class="st1" d="M26.5,61.7c-2.5,0-10.3-0.9-10.8-12.1c2.2,1.6,3.5,2.5,4.3,2.5c0.8,0,1.5-0.5,1.8-1.2
			c1.5-3.9,3.9-5.7,7.9-6.1l7.5,6.2c0,0,0,0,0,0.1c0,0.2,0,0.3,0,0.5C37.3,57.8,33.1,61.7,26.5,61.7z M39.6,48.5
			c-0.5,0-1.1-0.1-1.7-0.2l-5.5-4.6c-0.4-1-0.7-2.1-0.7-3.1c0-3.5,1-4.4,10.4-12.6c2.5-2.2,5.6-4.9,9.4-8.3c0.9-0.9,2.1-1.3,3.2-1.3
			c2,0,4.3,1.5,4.3,3.8c0,1.4-0.6,2.7-1.2,3.8C47.9,44.7,44.8,48.5,39.6,48.5z"/>
	</g>
</g>
<g id="레이어_5">
</g>
</svg>
